<svg xmlns="http://www.w3.org/2000/svg" viewBox="0 0 640 400" fill="none">
  <defs>
    <linearGradient id="bg" x1="0" y1="0" x2="640" y2="400" gradientUnits="userSpaceOnUse">
      <stop stop-color="#0f172a"/>
      <stop offset="0.5" stop-color="#1e293b"/>
      <stop offset="1" stop-color="#312e81"/>
    </linearGradient>
    <linearGradient id="accent" x1="0" y1="0" x2="1" y2="1">
      <stop stop-color="#22d3ee" stop-opacity="0.35"/>
      <stop offset="1" stop-color="#8b5cf6" stop-opacity="0.25"/>
    </linearGradient>
  </defs>
  <rect width="640" height="400" fill="url(#bg)"/>
  <rect x="48" y="48" width="544" height="304" rx="20" fill="#ffffff" fill-opacity="0.04" stroke="#ffffff" stroke-opacity="0.08"/>
  <rect x="72" y="72" width="180" height="28" rx="14" fill="#ffffff" fill-opacity="0.08"/>
  <circle cx="88" cy="86" r="6" fill="#22d3ee" fill-opacity="0.6"/>
  <rect x="104" y="80" width="120" height="12" rx="6" fill="#ffffff" fill-opacity="0.15"/>
  <text x="72" y="130" fill="#ffffff" fill-opacity="0.35" font-family="system-ui,sans-serif" font-size="11" font-weight="600" letter-spacing="0.08em">CONTACTS</text>
  <g>
    <rect x="72" y="142" width="496" height="52" rx="12" fill="url(#accent)" stroke="#ffffff" stroke-opacity="0.1"/>
    <circle cx="98" cy="168" r="16" fill="#22d3ee" fill-opacity="0.35"/>
    <rect x="124" y="158" width="110" height="10" rx="5" fill="#ffffff" fill-opacity="0.75"/>
    <rect x="124" y="174" width="72" height="8" rx="4" fill="#ffffff" fill-opacity="0.35"/>
    <rect x="520" y="160" width="32" height="16" rx="8" fill="#22d3ee" fill-opacity="0.25"/>
  </g>
  <g opacity="0.85">
    <rect x="72" y="206" width="496" height="52" rx="12" fill="#ffffff" fill-opacity="0.03" stroke="#ffffff" stroke-opacity="0.06"/>
    <circle cx="98" cy="232" r="16" fill="#8b5cf6" fill-opacity="0.35"/>
    <rect x="124" y="222" width="96" height="10" rx="5" fill="#ffffff" fill-opacity="0.55"/>
    <rect x="124" y="238" width="88" height="8" rx="4" fill="#ffffff" fill-opacity="0.25"/>
  </g>
  <g opacity="0.65">
    <rect x="72" y="270" width="496" height="52" rx="12" fill="#ffffff" fill-opacity="0.03" stroke="#ffffff" stroke-opacity="0.06"/>
    <circle cx="98" cy="296" r="16" fill="#6366f1" fill-opacity="0.35"/>
    <rect x="124" y="286" width="104" height="10" rx="5" fill="#ffffff" fill-opacity="0.45"/>
    <rect x="124" y="302" width="64" height="8" rx="4" fill="#ffffff" fill-opacity="0.2"/>
  </g>
  <text x="320" y="372" text-anchor="middle" fill="#ffffff" fill-opacity="0.5" font-family="system-ui,sans-serif" font-size="14" font-weight="600">Contact App</text>
</svg>
