<svg xmlns="http://www.w3.org/2000/svg" viewBox="0 0 640 400" fill="none">
  <defs>
    <linearGradient id="bg" x1="0" y1="0" x2="640" y2="400" gradientUnits="userSpaceOnUse">
      <stop stop-color="#0c1222"/>
      <stop offset="0.45" stop-color="#1e3a5f"/>
      <stop offset="1" stop-color="#312e81"/>
    </linearGradient>
  </defs>
  <rect width="640" height="400" fill="url(#bg)"/>
  <rect x="48" y="48" width="120" height="304" rx="18" fill="#ffffff" fill-opacity="0.05" stroke="#ffffff" stroke-opacity="0.1"/>
  <rect x="68" y="72" width="80" height="10" rx="5" fill="#ffffff" fill-opacity="0.35"/>
  <rect x="68" y="110" width="80" height="28" rx="8" fill="#38bdf8" fill-opacity="0.2" stroke="#38bdf8" stroke-opacity="0.35"/>
  <rect x="68" y="152" width="80" height="28" rx="8" fill="#ffffff" fill-opacity="0.04"/>
  <rect x="68" y="194" width="80" height="28" rx="8" fill="#ffffff" fill-opacity="0.04"/>
  <rect x="68" y="236" width="80" height="28" rx="8" fill="#ffffff" fill-opacity="0.04"/>
  <rect x="68" y="278" width="80" height="28" rx="8" fill="#ffffff" fill-opacity="0.04"/>
  <rect x="192" y="48" width="400" height="304" rx="18" fill="#ffffff" fill-opacity="0.05" stroke="#ffffff" stroke-opacity="0.1"/>
  <text x="216" y="88" fill="#ffffff" fill-opacity="0.9" font-family="system-ui,sans-serif" font-size="20" font-weight="700">Dashboard</text>
  <rect x="216" y="108" width="110" height="72" rx="12" fill="#38bdf8" fill-opacity="0.12" stroke="#38bdf8" stroke-opacity="0.3"/>
  <rect x="232" y="128" width="48" height="8" rx="4" fill="#ffffff" fill-opacity="0.35"/>
  <rect x="232" y="148" width="70" height="14" rx="4" fill="#38bdf8" fill-opacity="0.55"/>
  <rect x="342" y="108" width="110" height="72" rx="12" fill="#a78bfa" fill-opacity="0.12" stroke="#a78bfa" stroke-opacity="0.3"/>
  <rect x="358" y="128" width="48" height="8" rx="4" fill="#ffffff" fill-opacity="0.35"/>
  <rect x="358" y="148" width="70" height="14" rx="4" fill="#a78bfa" fill-opacity="0.55"/>
  <rect x="468" y="108" width="100" height="72" rx="12" fill="#34d399" fill-opacity="0.12" stroke="#34d399" stroke-opacity="0.3"/>
  <rect x="484" y="128" width="48" height="8" rx="4" fill="#ffffff" fill-opacity="0.35"/>
  <rect x="484" y="148" width="60" height="14" rx="4" fill="#34d399" fill-opacity="0.55"/>
  <rect x="216" y="204" width="112" height="120" rx="12" fill="#ffffff" fill-opacity="0.04" stroke="#ffffff" stroke-opacity="0.08"/>
  <rect x="230" y="220" width="56" height="8" rx="4" fill="#ffffff" fill-opacity="0.3"/>
  <rect x="230" y="244" width="84" height="28" rx="8" fill="#ffffff" fill-opacity="0.06"/>
  <rect x="230" y="282" width="84" height="28" rx="8" fill="#38bdf8" fill-opacity="0.15"/>
  <rect x="344" y="204" width="112" height="120" rx="12" fill="#ffffff" fill-opacity="0.04" stroke="#ffffff" stroke-opacity="0.08"/>
  <rect x="358" y="220" width="56" height="8" rx="4" fill="#ffffff" fill-opacity="0.3"/>
  <rect x="358" y="244" width="84" height="28" rx="8" fill="#ffffff" fill-opacity="0.06"/>
  <rect x="358" y="282" width="84" height="28" rx="8" fill="#ffffff" fill-opacity="0.06"/>
  <rect x="472" y="204" width="96" height="120" rx="12" fill="#ffffff" fill-opacity="0.04" stroke="#ffffff" stroke-opacity="0.08"/>
  <rect x="486" y="220" width="56" height="8" rx="4" fill="#ffffff" fill-opacity="0.3"/>
  <rect x="486" y="244" width="68" height="28" rx="8" fill="#ffffff" fill-opacity="0.06"/>
  <rect x="486" y="282" width="68" height="28" rx="8" fill="#ffffff" fill-opacity="0.06"/>
  <text x="320" y="380" text-anchor="middle" fill="#ffffff" fill-opacity="0.5" font-family="system-ui,sans-serif" font-size="14" font-weight="600">Planner App</text>
</svg>
