<svg xmlns="http://www.w3.org/2000/svg" viewBox="0 0 640 400" fill="none">
  <defs>
    <linearGradient id="bg" x1="0" y1="0" x2="640" y2="400" gradientUnits="userSpaceOnUse">
      <stop stop-color="#0f172a"/>
      <stop offset="0.55" stop-color="#134e4a"/>
      <stop offset="1" stop-color="#0e7490"/>
    </linearGradient>
  </defs>
  <rect width="640" height="400" fill="url(#bg)"/>
  <rect x="120" y="56" width="400" height="288" rx="24" fill="#ffffff" fill-opacity="0.05" stroke="#ffffff" stroke-opacity="0.1"/>
  <rect x="152" y="88" width="120" height="8" rx="4" fill="#34d399" fill-opacity="0.7"/>
  <rect x="152" y="104" width="336" height="6" rx="3" fill="#ffffff" fill-opacity="0.12"/>
  <text x="320" y="152" text-anchor="middle" fill="#ffffff" fill-opacity="0.9" font-family="system-ui,sans-serif" font-size="18" font-weight="700">Which is valid JavaScript?</text>
  <g>
    <rect x="152" y="176" width="336" height="44" rx="12" fill="#34d399" fill-opacity="0.18" stroke="#34d399" stroke-opacity="0.45"/>
    <circle cx="176" cy="198" r="10" fill="#34d399" fill-opacity="0.5"/>
    <rect x="196" y="192" width="180" height="12" rx="6" fill="#ffffff" fill-opacity="0.8"/>
  </g>
  <g opacity="0.75">
    <rect x="152" y="232" width="336" height="44" rx="12" fill="#ffffff" fill-opacity="0.04" stroke="#ffffff" stroke-opacity="0.08"/>
    <circle cx="176" cy="254" r="10" fill="#ffffff" fill-opacity="0.15"/>
    <rect x="196" y="248" width="160" height="12" rx="6" fill="#ffffff" fill-opacity="0.45"/>
  </g>
  <g opacity="0.75">
    <rect x="152" y="288" width="336" height="44" rx="12" fill="#ffffff" fill-opacity="0.04" stroke="#ffffff" stroke-opacity="0.08"/>
    <circle cx="176" cy="310" r="10" fill="#ffffff" fill-opacity="0.15"/>
    <rect x="196" y="304" width="140" height="12" rx="6" fill="#ffffff" fill-opacity="0.45"/>
  </g>
  <rect x="152" y="72" width="80" height="6" rx="3" fill="#ffffff" fill-opacity="0.2"/>
  <rect x="152" y="72" width="48" height="6" rx="3" fill="#34d399" fill-opacity="0.8"/>
  <text x="320" y="372" text-anchor="middle" fill="#ffffff" fill-opacity="0.5" font-family="system-ui,sans-serif" font-size="14" font-weight="600">Quiz App</text>
</svg>
